# xmcd
#
# Track frame offsets:
#	150
#	16250
#	34515
#	46375
#	55331
#	67867
#	80596
#	93231
#	104201
#	114141
#	126521
#	136638
#
# Disc length: 1972
#
# Revision: 3
# Processed by: cddbd v1.5.1PL0 Copyright (c) Steve Scherf et al.
# Submitted via: Audio-CD-Archiv 2.10.438
# Normalized: r1:DSETVAR1,TDELIM( - );r2:TSWAP
#
DISCID=9707b20c
DTITLE=Various Artist - I'm A Truck CD1
DYEAR=1900
DGENRE=country
TTITLE0=Red Simpson - I'm A Truck
TTITLE1=Abilene - Dixieland Delight
TTITLE2=Sammi Smith - Help Me Make It Trough The Night
TTITLE3=Dave Dudley - Six Days On The Road
TTITLE4=Johnny Russell - Rednecks, White Socks, Blue Ribbon Beer
TTITLE5=Kenny Price - Sheriff Of Boone County
TTITLE6=Del Reeves - Girl On The Billboard
TTITLE7=Johnny Russell - King Of The Road
TTITLE8=Dave Dudley - Truck Drivin' Son-Of-A-Gun
TTITLE9=Mel McBrown - Freightliner Fever
TTITLE10=The Nashville Voices - Dixie Winds
TTITLE11=Earl Ricks - That's Truckdriving
EXTD=
EXTT0=
EXTT1=
EXTT2=
EXTT3=
EXTT4=
EXTT5=
EXTT6=
EXTT7=
EXTT8=
EXTT9=
EXTT10=
EXTT11=
PLAYORDER=
